<svg width="78" height="53" viewBox="0 0 78 53" fill="none" xmlns="http://www.w3.org/2000/svg">
<path d="M14.4726 43.6909L21.2798 49.1985C23.8349 51.2775 27.1117 52.3717 30.4861 52.3717H54.8867C58.2805 52.3717 60.387 51.2775 62.9422 49.1985L69.7494 43.6544" fill="#FF917B"/>
<path d="M66.6286 28.7001C63.6249 28.7001 60.9137 29.5025 58.8657 30.7974C56.8372 29.5025 54.1065 28.7001 51.1027 28.7001C48.099 28.7001 45.3878 29.5025 43.3398 30.7974C41.3113 29.5025 38.5806 28.7001 35.5769 28.7001C32.5731 28.7001 29.8619 29.5025 27.8139 30.7974C25.7854 29.5025 23.0547 28.7001 20.051 28.7001C13.7509 28.7001 8.66016 32.1834 8.66016 36.4873C8.66016 40.7912 13.7704 44.2745 20.051 44.2745C23.0547 44.2745 63.6054 43.9462 66.6091 43.9462C72.9092 43.9462 77.9999 40.6271 77.9999 36.3232C78.0194 32.0192 72.9092 28.7001 66.6286 28.7001Z" fill="#99746A"/>
<path d="M13.1268 42.6514C5.89047 42.6514 0 38.4387 0 33.2411C0 28.0436 5.89047 23.8308 13.1268 23.8308C15.9355 23.8308 18.6467 24.4691 20.8897 25.6363C23.1328 24.4691 25.8439 23.8308 28.6526 23.8308C31.4613 23.8308 34.1725 24.4691 36.4156 25.6363C38.6586 24.4691 41.3698 23.8308 44.1785 23.8308C46.9872 23.8308 49.6984 24.4691 51.9415 25.6363C54.1845 24.4691 56.8957 23.8308 59.7044 23.8308C67.0577 23.8308 72.8312 27.8977 72.8312 33.077C72.8312 38.2563 67.0577 42.3231 59.7044 42.3231C58.2025 42.3231 47.1433 42.4143 36.4351 42.4873C25.7074 42.5602 14.6482 42.6514 13.1268 42.6514ZM13.1268 27.077C7.87997 27.077 3.47187 29.9038 3.47187 33.2411C3.47187 36.5785 7.89947 39.4052 13.1268 39.4052C14.6286 39.4052 25.6879 39.314 36.3961 39.2411C47.1042 39.1681 58.183 39.077 59.6849 39.077C65.0097 39.077 69.3398 36.3779 69.3398 33.077C69.3398 29.7761 65.0097 27.077 59.6849 27.077C57.1493 27.077 54.7307 27.7153 52.8972 28.8825L51.922 29.5025L50.9467 28.8825C49.1133 27.7153 46.6946 27.077 44.159 27.077C41.6234 27.077 39.2048 27.7153 37.3713 28.8825L36.3961 29.5025L35.4208 28.8825C33.5874 27.7153 31.1688 27.077 28.6331 27.077C26.0975 27.077 23.6789 27.7153 21.8454 28.8825L20.8702 29.5025L19.895 28.8825C18.081 27.7153 15.6624 27.077 13.1268 27.077Z" fill="black"/>
<path d="M45.6804 34.8642C45.5829 34.8642 45.4659 34.8642 45.3683 34.8277C44.4321 34.6636 43.808 33.8247 43.9835 32.9311C44.5491 30.0679 49.5229 27.0223 51.0248 26.1469C51.844 25.6728 52.8972 25.9098 53.4043 26.6758C53.9115 27.4418 53.6579 28.4448 52.8387 28.9007C50.4201 30.2867 47.5919 32.5299 47.3968 33.5147C47.2408 34.3171 46.4996 34.8642 45.6804 34.8642Z" fill="black"/>
<path d="M30.3886 34.8642C30.2911 34.8642 30.1741 34.8642 30.0765 34.8277C29.1403 34.6636 28.5161 33.8247 28.6917 32.9311C29.2573 30.0679 34.2311 27.0223 35.7329 26.1469C36.5521 25.6728 37.6249 25.9098 38.1125 26.6758C38.6197 27.4418 38.3661 28.4448 37.5469 28.9007C35.1283 30.2867 32.3001 32.5299 32.105 33.5147C31.9295 34.3171 31.2078 34.8642 30.3886 34.8642Z" fill="black"/>
<path d="M15.0773 34.8642C14.9797 34.8642 14.8627 34.8642 14.7652 34.8277C13.829 34.6636 13.2048 33.8247 13.3803 32.9311C13.946 30.0679 18.9197 27.0223 20.4216 26.1469C21.2408 25.6728 22.3136 25.9098 22.8012 26.6758C23.3083 27.4418 23.0548 28.4448 22.2356 28.9007C19.817 30.2867 16.9887 32.5299 16.7937 33.5147C16.6377 34.3171 15.8965 34.8642 15.0773 34.8642Z" fill="black"/>
<path d="M47.9624 50.2197H24.7126C20.5971 50.2197 17.0082 49.0708 14.3556 46.9006L7.58737 41.6848C6.84619 41.1195 6.74866 40.0982 7.35331 39.4052C7.95796 38.7122 9.05023 38.621 9.79142 39.1864L16.5986 44.4386C18.6661 46.1346 21.3968 46.9735 24.7126 46.9735H47.9624C51.2783 46.9735 53.9894 46.1347 56.0374 44.4568L62.8641 39.0405C63.5858 38.4569 64.6976 38.5481 65.3023 39.2228C65.9264 39.8976 65.8289 40.9371 65.1072 41.5025L58.3 46.9006C55.6669 49.0708 52.078 50.2197 47.9624 50.2197Z" fill="black"/>
<path d="M64.327 30.3232C64.327 31.2351 63.5468 31.9645 62.5716 31.9645C61.5963 31.9645 60.7966 31.2168 60.7966 30.3232C60.7966 29.4114 61.5963 28.6636 62.5716 28.6636C63.5468 28.6636 64.327 29.4114 64.327 30.3232Z" fill="black"/>
<path d="M39.6144 33.6241C39.6144 34.5359 38.8147 35.2654 37.8395 35.2654C36.8642 35.2654 36.0645 34.5359 36.0645 33.6241C36.0645 32.7122 36.8642 31.9645 37.8395 31.9645C38.8147 31.9828 39.6144 32.7122 39.6144 33.6241Z" fill="black"/>
<path d="M10.1815 32.5299C10.1815 33.4417 9.38184 34.1894 8.4066 34.1894C7.43135 34.1894 6.63165 33.4417 6.63165 32.5299C6.63165 31.618 7.43135 30.8885 8.4066 30.8885C9.38184 30.8885 10.1815 31.618 10.1815 32.5299Z" fill="black"/>
<path d="M51.0832 23.5938C50.9272 23.5938 50.7712 23.5755 50.6151 23.539C47.9625 22.846 43.1448 19.8005 43.964 13.3446C44.1005 12.3233 44.237 11.375 44.3541 10.4996C45.1148 5.3203 45.1148 3.95253 43.8079 3.51484C42.9107 3.22305 42.4231 2.29296 42.7547 1.45406C43.0667 0.615159 44.0615 0.159234 44.9587 0.469263C49.1133 1.85527 48.5476 5.6668 47.7869 10.9555C47.6699 11.8127 47.5334 12.761 47.3968 13.7458C46.7142 19.0892 51.3368 20.384 51.5319 20.4205C52.4486 20.6576 52.9947 21.5512 52.7217 22.4266C52.5266 23.1196 51.8244 23.5938 51.0832 23.5938Z" fill="black"/>
<path d="M35.7719 23.5938C35.6159 23.5938 35.4598 23.5755 35.3038 23.539C32.6316 22.846 27.8334 19.8005 28.6526 13.3446C28.7892 12.3233 28.9257 11.375 29.0427 10.4996C29.8034 5.3203 29.8034 3.95253 28.4966 3.51484C27.5994 3.22305 27.1312 2.29296 27.4433 1.45406C27.7554 0.615159 28.7501 0.159234 29.6474 0.469263C33.8019 1.85527 33.2363 5.6668 32.4756 10.9555C32.3585 11.8309 32.222 12.761 32.0855 13.764C31.4028 19.1075 36.0255 20.4023 36.2205 20.4388C37.1372 20.6758 37.6834 21.5694 37.4103 22.4448C37.2153 23.1196 36.5326 23.5938 35.7719 23.5938Z" fill="black"/>
</svg>
